<svg width="18" height="20" viewBox="0 0 18 20" fill="none" xmlns="http://www.w3.org/2000/svg">
<path d="M5.50005 4.27778C5.50005 3.46739 5.82198 2.6902 6.39501 2.11717C6.96803 1.54415 7.74523 1.22222 8.55561 1.22222C9.36599 1.22222 10.1432 1.54415 10.7162 2.11717C11.2892 2.6902 11.6112 3.46739 11.6112 4.27778V5.97667H12.8334V4.27778C12.8334 3.71601 12.7227 3.15975 12.5078 2.64074C12.2928 2.12174 11.9777 1.65016 11.5805 1.25293C11.1832 0.855704 10.7116 0.540605 10.1926 0.325626C9.67364 0.110648 9.11737 0 8.55561 0C7.99384 0 7.43758 0.110648 6.91857 0.325626C6.39957 0.540605 5.92799 0.855704 5.53076 1.25293C5.13354 1.65016 4.81844 2.12174 4.60346 2.64074C4.38848 3.15975 4.27783 3.71601 4.27783 4.27778V5.97667H5.50005V4.27778Z" fill="black"/>
<path d="M12.8333 5.97656V7.87101C12.8333 8.03308 12.7689 8.18852 12.6543 8.30313C12.5397 8.41773 12.3843 8.48212 12.2222 8.48212C12.0601 8.48212 11.9047 8.41773 11.7901 8.30313C11.6755 8.18852 11.6111 8.03308 11.6111 7.87101V5.97656H5.5V7.87101C5.5 8.03308 5.43562 8.18852 5.32101 8.30313C5.2064 8.41773 5.05097 8.48212 4.88889 8.48212C4.72681 8.48212 4.57137 8.41773 4.45677 8.30313C4.34216 8.18852 4.27778 8.03308 4.27778 7.87101V5.97656H0V18.1988C0 18.5229 0.128769 18.8338 0.357981 19.063C0.587192 19.2922 0.898069 19.421 1.22222 19.421H15.8889C16.213 19.421 16.5239 19.2922 16.7531 19.063C16.9823 18.8338 17.1111 18.5229 17.1111 18.1988V5.97656H12.8333Z" fill="black"/>
</svg>
