<svg width="15" height="15" viewBox="0 0 15 15" fill="none" xmlns="http://www.w3.org/2000/svg">
<path d="M0.0450649 13.9218L4.91442 9.05246C4.1588 8.07559 3.75005 6.88122 3.75005 5.62498C3.75005 4.12123 4.33692 2.71124 5.39817 1.64812C6.45941 0.584997 7.87316 0 9.37502 0C10.8769 0 12.2906 0.586872 13.3519 1.64812C14.415 2.70936 15 4.12123 15 5.62498C15 7.12684 14.4131 8.54059 13.3519 9.60183C12.2906 10.665 10.8788 11.25 9.37502 11.25C8.11878 11.25 6.92628 10.8412 5.94941 10.0875L1.08006 14.9549C1.06578 14.9692 1.04883 14.9806 1.03017 14.9883C1.01151 14.996 0.991508 15 0.971311 15C0.951112 15 0.931112 14.996 0.912453 14.9883C0.893793 14.9806 0.87684 14.9692 0.862561 14.9549L0.0450649 14.1393C0.0307789 14.125 0.0194454 14.1081 0.011713 14.0894C0.00398064 14.0708 0 14.0508 0 14.0306C0 14.0104 0.00398064 13.9904 0.011713 13.9717C0.0194454 13.953 0.0307789 13.9361 0.0450649 13.9218ZM6.40504 8.59496C7.20003 9.38808 8.25378 9.82496 9.37502 9.82496C10.4963 9.82496 11.55 9.38808 12.345 8.59496C13.1381 7.79997 13.575 6.74622 13.575 5.62498C13.575 4.50373 13.1381 3.44811 12.345 2.65499C11.55 1.86187 10.4963 1.42499 9.37502 1.42499C8.25378 1.42499 7.19816 1.85999 6.40504 2.65499C5.61192 3.44999 5.17504 4.50373 5.17504 5.62498C5.17504 6.74622 5.61192 7.80184 6.40504 8.59496Z" fill="black"/>
</svg>
