<svg width="0" height="0" class="hidden">
  <symbol fill="none" xmlns="http://www.w3.org/2000/svg" viewBox="0 0 32 32" id="trash">
    <path d="M24.125 30.221H7.875a2.603 2.603 0 01-2.541-2.666V9.98H7.11v17.574a.827.827 0 00.765.889h16.249a.828.828 0 00.764-.89V9.982h1.778v17.574a2.606 2.606 0 01-2.542 2.666zM27.36 8H4.444a.889.889 0 110-1.778H27.36a.889.889 0 010 1.777z" fill="#858585"></path>
    <path d="M18.667 11.556h1.777v13.333h-1.777V11.556zm-7.112 0h1.778v13.333h-1.778V11.556zm8.889-6.346h-1.689V3.555h-5.51V5.21h-1.69V3.556a1.778 1.778 0 011.69-1.778h5.51a1.778 1.778 0 011.69 1.778V5.21z" fill="#858585"></path>
  </symbol>
  <symbol fill="none" xmlns="http://www.w3.org/2000/svg" viewBox="0 0 21 12" id="vk">
    <path d="M19.579.854c.14-.465 0-.806-.662-.806h-2.193c-.558 0-.813.295-.953.619 0 0-1.115 2.719-2.695 4.482-.51.513-.743.675-1.021.675-.139 0-.341-.162-.341-.627V.854c0-.558-.161-.806-.626-.806H7.642c-.348 0-.558.258-.558.504 0 .528.79.65.871 2.138v3.228c0 .707-.127.836-.407.836-.743 0-2.551-2.73-3.624-5.853-.209-.607-.42-.852-.98-.852H.752C.125.049 0 .344 0 .668c0 .582.743 3.462 3.461 7.27 1.812 2.602 4.363 4.012 6.687 4.012 1.393 0 1.565-.313 1.565-.853V9.13c0-.626.133-.752.574-.752.324 0 .882.164 2.183 1.417 1.486 1.486 1.732 2.153 2.567 2.153h2.192c.626 0 .939-.313.759-.931-.197-.615-.907-1.51-1.849-2.57-.512-.603-1.277-1.253-1.51-1.578-.325-.42-.231-.604 0-.976.001 0 2.672-3.761 2.95-5.04z" fill="#333"></path>
  </symbol>
  <symbol fill="none" xmlns="http://www.w3.org/2000/svg" viewBox="0 0 19 19" id="whatsapp">
    <path fill-rule="evenodd" clip-rule="evenodd" d="M15.403 2.633A8.918 8.918 0 009.053 0C4.105 0 .077 4.027.075 8.977c0 1.582.413 3.126 1.198 4.488L0 18.116l4.759-1.249a8.98 8.98 0 004.29 1.093h.004c4.947 0 8.975-4.027 8.977-8.977a8.926 8.926 0 00-2.627-6.35zm-6.35 13.812H9.05a7.445 7.445 0 01-3.798-1.041l-.272-.162-2.824.741.753-2.753-.177-.282a7.448 7.448 0 01-1.141-3.971c.002-4.114 3.349-7.461 7.465-7.461a7.413 7.413 0 015.275 2.188 7.42 7.42 0 012.183 5.279c-.002 4.114-3.349 7.462-7.461 7.462zm4.093-5.589c-.225-.113-1.327-.655-1.533-.73-.205-.075-.354-.112-.504.112-.15.224-.58.729-.711.879-.131.15-.262.168-.486.056-.224-.112-.947-.349-1.804-1.113-.667-.595-1.117-1.329-1.248-1.554-.131-.225-.014-.346.099-.458.101-.1.224-.262.336-.393.112-.131.149-.224.224-.374.075-.15.038-.281-.019-.393-.056-.113-.505-1.217-.692-1.666-.181-.435-.366-.377-.504-.383a9.649 9.649 0 00-.429-.008.826.826 0 00-.599.28c-.206.225-.785.767-.785 1.871s.804 2.171.916 2.321c.112.15 1.582 2.415 3.832 3.387.536.231.954.369 1.279.473.537.171 1.026.146 1.413.089.431-.064 1.327-.542 1.514-1.066.187-.524.187-.973.131-1.067-.056-.094-.207-.151-.43-.263z" fill="#333"></path>
  </symbol>
  <symbol fill="none" xmlns="http://www.w3.org/2000/svg" viewBox="0 0 11 20" id="arrow-right">
    <path d="M.396 18.896l9.5-9.5M.396.604l9.5 9.5" opacity=".6" stroke="#333"></path>
  </symbol>
  <symbol fill="none" xmlns="http://www.w3.org/2000/svg" viewBox="0 0 18 20" id="bag">
    <path d="M5.5 4.278a3.056 3.056 0 016.111 0v1.699h1.222v-1.7a4.28 4.28 0 00-7.302-3.024 4.278 4.278 0 00-1.253 3.025v1.699H5.5v-1.7zm7.333 1.699V7.87a.611.611 0 01-1.222 0V5.977H5.5V7.87a.611.611 0 11-1.222 0V5.977H0v12.222a1.222 1.222 0 001.222 1.222H15.89a1.222 1.222 0 001.222-1.222V5.977h-4.278z" fill="#000"></path>
  </symbol>
  <symbol fill="none" xmlns="http://www.w3.org/2000/svg" viewBox="0 0 19 19" id="inst">
    <path d="M8.999 4.376a4.624 4.624 0 100 9.248 4.624 4.624 0 000-9.248zm0 7.627a3.004 3.004 0 110-6.008 3.004 3.004 0 010 6.008zm4.807-6.719a1.078 1.078 0 100-2.156 1.078 1.078 0 000 2.156z" fill="#333"></path>
    <path d="M17.533 3.11A4.605 4.605 0 0014.9.478a6.607 6.607 0 00-2.186-.42c-.963-.042-1.268-.054-3.71-.054s-2.755 0-3.71.054a6.554 6.554 0 00-2.184.42A4.6 4.6 0 00.477 3.11a6.585 6.585 0 00-.419 2.186c-.043.962-.056 1.267-.056 3.71 0 2.442 0 2.753.056 3.71.015.748.156 1.486.419 2.187a4.61 4.61 0 002.634 2.632 6.583 6.583 0 002.185.45c.963.042 1.268.055 3.71.055s2.755 0 3.71-.055a6.616 6.616 0 002.186-.42 4.613 4.613 0 002.633-2.632c.263-.7.404-1.438.419-2.186.043-.962.056-1.267.056-3.71s0-2.753-.056-3.71a6.583 6.583 0 00-.421-2.217zm-1.218 9.532a5.046 5.046 0 01-.311 1.688 2.987 2.987 0 01-1.712 1.71c-.535.2-1.1.305-1.67.312-.95.044-1.218.055-3.654.055-2.438 0-2.687 0-3.655-.055a4.961 4.961 0 01-1.669-.311 2.985 2.985 0 01-1.72-1.711 5.08 5.08 0 01-.31-1.67c-.043-.95-.053-1.217-.053-3.653 0-2.437 0-2.686.053-3.655a5.038 5.038 0 01.31-1.687c.306-.79.931-1.41 1.72-1.712a5.01 5.01 0 011.669-.311c.951-.043 1.218-.055 3.655-.055s2.687 0 3.654.055a4.96 4.96 0 011.67.31 2.99 2.99 0 011.712 1.713c.197.535.302 1.1.311 1.669.043.95.054 1.218.054 3.655 0 2.436 0 2.698-.043 3.654h-.011v-.001z" fill="#333"></path>
  </symbol>
  <symbol fill="none" xmlns="http://www.w3.org/2000/svg" viewBox="0 0 21 18" id="tg">
    <path d="M18.665.716L.935 7.553c-1.21.486-1.203 1.16-.222 1.462l4.552 1.42L15.797 3.79c.498-.303.953-.14.58.192l-8.534 7.7h-.002l.002.002-.314 4.692c.46 0 .663-.211.921-.46l2.211-2.15 4.6 3.397c.847.467 1.456.227 1.667-.785l3.02-14.228c.308-1.24-.474-1.8-1.283-1.434z" fill="#333"></path>
  </symbol>
</svg>