<svg width="32" height="32" viewBox="0 0 32 32" fill="none" xmlns="http://www.w3.org/2000/svg">
<path d="M24.1246 30.2214H7.87575C7.5337 30.2134 7.19659 30.138 6.88369 29.9996C6.57078 29.8612 6.28821 29.6625 6.05213 29.4148C5.81604 29.1672 5.63106 28.8755 5.50776 28.5563C5.38446 28.2371 5.32526 27.8968 5.33352 27.5548V9.98145H7.1113V27.5548C7.10282 27.6634 7.11589 27.7726 7.14976 27.8762C7.18364 27.9797 7.23765 28.0756 7.30869 28.1582C7.37973 28.2408 7.4664 28.3085 7.56372 28.3575C7.66104 28.4065 7.76708 28.4358 7.87575 28.4437H24.1246C24.2333 28.4358 24.3393 28.4065 24.4367 28.3575C24.534 28.3085 24.6206 28.2408 24.6917 28.1582C24.7627 28.0756 24.8167 27.9797 24.8506 27.8762C24.8845 27.7726 24.8976 27.6634 24.8891 27.5548V9.98145H26.6669V27.5548C26.6751 27.8968 26.6159 28.2371 26.4926 28.5563C26.3693 28.8755 26.1843 29.1672 25.9483 29.4148C25.7122 29.6625 25.4296 29.8612 25.1167 29.9996C24.8038 30.138 24.4667 30.2134 24.1246 30.2214Z" fill="#858585"/>
<path d="M27.3599 7.99946H4.44431C4.20856 7.99946 3.98247 7.90581 3.81577 7.73911C3.64907 7.57241 3.55542 7.34632 3.55542 7.11057C3.55542 6.87482 3.64907 6.64873 3.81577 6.48203C3.98247 6.31533 4.20856 6.22168 4.44431 6.22168H27.3599C27.5956 6.22168 27.8217 6.31533 27.9884 6.48203C28.1551 6.64873 28.2488 6.87482 28.2488 7.11057C28.2488 7.34632 28.1551 7.57241 27.9884 7.73911C27.8217 7.90581 27.5956 7.99946 27.3599 7.99946Z" fill="#858585"/>
<path d="M18.6667 11.5557H20.4445V24.889H18.6667V11.5557Z" fill="#858585"/>
<path d="M11.5554 11.5557H13.3332V24.889H11.5554V11.5557Z" fill="#858585"/>
<path d="M20.4443 5.20943H18.7554V3.5561H13.2443V5.20943H11.5554V3.5561C11.5549 3.09961 11.7299 2.66039 12.0443 2.32943C12.3587 1.99847 12.7884 1.80114 13.2443 1.77832H18.7554C19.2113 1.80114 19.641 1.99847 19.9554 2.32943C20.2698 2.66039 20.4449 3.09961 20.4443 3.5561V5.20943Z" fill="#858585"/>
</svg>
