<svg width="21" height="12" viewBox="0 0 21 12" fill="none" xmlns="http://www.w3.org/2000/svg">
<path d="M19.579 0.853852C19.719 0.388852 19.579 0.0478516 18.917 0.0478516H16.724C16.166 0.0478516 15.911 0.342852 15.771 0.666852C15.771 0.666852 14.656 3.38585 13.076 5.14885C12.566 5.66185 12.333 5.82385 12.055 5.82385C11.916 5.82385 11.714 5.66185 11.714 5.19685V0.853852C11.714 0.295852 11.553 0.0478516 11.088 0.0478516H7.642C7.294 0.0478516 7.084 0.305852 7.084 0.551852C7.084 1.07985 7.874 1.20185 7.955 2.68985V5.91785C7.955 6.62485 7.828 6.75385 7.548 6.75385C6.805 6.75385 4.997 4.02485 3.924 0.900852C3.715 0.293852 3.504 0.048852 2.944 0.048852H0.752C0.125 0.048852 0 0.343852 0 0.667852C0 1.24985 0.743 4.12985 3.461 7.93885C5.273 10.5399 7.824 11.9499 10.148 11.9499C11.541 11.9499 11.713 11.6369 11.713 11.0969V9.13085C11.713 8.50485 11.846 8.37885 12.287 8.37885C12.611 8.37885 13.169 8.54285 14.47 9.79585C15.956 11.2819 16.202 11.9489 17.037 11.9489H19.229C19.855 11.9489 20.168 11.6359 19.988 11.0179C19.791 10.4029 19.081 9.50785 18.139 8.44885C17.627 7.84485 16.862 7.19485 16.629 6.86985C16.304 6.45085 16.398 6.26585 16.629 5.89385C16.63 5.89485 19.301 2.13285 19.579 0.853852Z" fill="#333333"/>
</svg>
